# xmcd
#
# Track frame offsets: 
#        150
#        15981
#        36635
#        50452
#        68133
#        81444
#        93411
#        106487
#        120650
#        132632
#        147508
#        161962
#        177444
#        190174
#        203655
#        217446
#        231047
#        241640
#        256176
#
# Disc length: 3565 seconds
#
# Revision: 0
# Processed by: cddbd v1.5.2PL0 Copyright (c) Steve Scherf et al.
# Submitted via: ExactAudioCopy v0.99pb4
#
DISCID=1c0deb13
DTITLE=Various Artist - тОУ лПОУФОУЙИОЩ ТА тщКИА
DYEAR=2003
DGENRE=Greek
TTITLE0=еухуло лпоуфоуйи - циыяцос фалпетас
TTITLE1=соко мО2 - ваягс келомопоукос
TTITLE2=тоу стеккайг та леяайиа - вягстос мийокопоукос
TTITLE3=то лимояе тгс ауцгс - ламокгс ливакайгс
TTITLE4=васапийос - хамасгс покуйамдяиытгс
TTITLE5=ема тяеко лпоуфоуйи - циыяцос кауйас
TTITLE6=о балбайаягс ста йежиа тоу - стекиос балбайаягс
TTITLE7=о лыяазтгс паифеи тсижтетеки - циаммгс лыяазтгс
TTITLE8=васапосеябийо - сытгягс йакулмайгс
TTITLE9=тсижтетеки - еухулиос стоуяазтгс
TTITLE10=жамтасиа фезлпейийо - циыяцос лпоуяас
TTITLE11=сеябийос - басикгс спгкиыпоукос
TTITLE12=то лпоуфоуйи нежамт©меи - вягстос йотсымгс
TTITLE13=паине циаммг тсижтетеки - циаммгс пакаиокоцоу
TTITLE14=то тсижтетеки тоу лпоуямекг - кеомаядос лпоуямекгс
TTITLE15=фезлпейийо баяу - дглгтягс мтеябисопоукос
TTITLE16=тсижтетеки - дглгтягс ваяос
TTITLE17=то айоямтеом ваяифеи йежиа - паяасйеуас ацасиытгс
TTITLE18=пеммиес - стекиос балбайаягс
EXTD=
EXTT0=
EXTT1=
EXTT2=
EXTT3=
EXTT4=
EXTT5=
EXTT6=
EXTT7=
EXTT8=
EXTT9=
EXTT10=
EXTT11=
EXTT12=
EXTT13=
EXTT14=
EXTT15=
EXTT16=
EXTT17=
EXTT18=
PLAYORDER=
